<svg id="Layer_2" data-name="Layer 2" xmlns="http://www.w3.org/2000/svg" width="45.903" height="47.794" viewBox="0 0 45.903 47.794">
  <g id="flag">
    <path id="Path_6" data-name="Path 6" d="M45.9,47.794H0V0" fill="#fff" opacity="0"/>
    <path id="Path_7" data-name="Path 7" d="M40.174,6.9a4.312,4.312,0,0,0-3.79-.58,18.179,18.179,0,0,1-5.141.65,20.563,20.563,0,0,1-7.415-1.811A24.445,24.445,0,0,0,14.66,3C7.814,3,5.185,5.322,4.711,5.647A2.3,2.3,0,0,0,4,7.319V42.472a2.369,2.369,0,0,0,4.738,0V32.488a15.149,15.149,0,0,1,5.922-.952,20.564,20.564,0,0,1,7.415,1.811,24.445,24.445,0,0,0,9.168,2.159,18.463,18.463,0,0,0,8.291-1.625,4.036,4.036,0,0,0,2.369-3.6V10.221A4.085,4.085,0,0,0,40.174,6.9Zm-3.009,23.01a15.246,15.246,0,0,1-5.922.952,20.128,20.128,0,0,1-7.415-1.834,24.9,24.9,0,0,0-9.168-2.136,22.964,22.964,0,0,0-5.922.673V8.619a14.786,14.786,0,0,1,5.922-.975,20.128,20.128,0,0,1,7.415,1.834,24.9,24.9,0,0,0,9.168,2.136,22.721,22.721,0,0,0,5.922-.7Z" transform="translate(0 0)" fill="#fff"/>
  </g>
</svg>
